# xmcd
#
# Track frame offsets: 
#        150
#        17387
#        38637
#        60622
#        76600
#        100030
#        120390
#        141257
#        163310
#        180695
#
# Disc length: 2714 seconds
#
# Revision: 0
# Processed by: cddbd v1.5.2PL0 Copyright (c) Steve Scherf et al.
# Submitted via: ExactAudioCopy v0.95b4
#
DISCID=710a980a
DTITLE=陳曉東 (Daniel Chan) - 我要的只是愛
DYEAR=2001
DGENRE=Pop
TTITLE0=擋不住我的心
TTITLE1=笑著說再會
TTITLE2=自由港
TTITLE3=我要的只是愛
TTITLE4=你讓我感覺這才是愛情
TTITLE5=不必說感謝
TTITLE6=快門
TTITLE7=再愛
TTITLE8=愛要怎麼說
TTITLE9=奇蹟
EXTD=
EXTT0=
EXTT1=
EXTT2=
EXTT3=
EXTT4=
EXTT5=
EXTT6=
EXTT7=
EXTT8=
EXTT9=
PLAYORDER=
